<svg width="406" height="394" viewBox="0 0 406 394" fill="none" xmlns="http://www.w3.org/2000/svg">
<path d="M365.35 43.2683V0.5H404.871V43.2683H365.35Z" stroke="#3C3C3C"/>
<path d="M40.5498 43.2838H40.0498V43.7838V350.162V350.662H40.5498H404.883V393.446H40.5498H0.5V0.5H40.5498H121.621H121.635H162.156H202.706H243.241H283.777H323.812V218.357H283.777H162.656V175.589H283.777H284.277V175.089V43.7838V43.2838H283.777H243.241H202.706H162.156H121.635H121.621H40.5498Z" stroke="#3C3C3C"/>
<path d="M121.138 262.625V263.125H121.638H323.815V305.909H121.638H81.588V262.625V131.32V88.0521H242.744V130.82H121.638H121.138V131.32V262.625Z" stroke="#3C3C3C"/>
<path d="M365.35 305.909V88.0521H404.871V305.909H365.35Z" stroke="#3C3C3C"/>
</svg>
