<?xml version="1.0" encoding="utf-8"?>
<!-- Generator: Adobe Illustrator 16.0.3, SVG Export Plug-In . SVG Version: 6.00 Build 0)  -->
<!DOCTYPE svg PUBLIC "-//W3C//DTD SVG 1.1//EN" "http://www.w3.org/Graphics/SVG/1.1/DTD/svg11.dtd">
<svg version="1.1" id="Warstwa_1" xmlns="http://www.w3.org/2000/svg" xmlns:xlink="http://www.w3.org/1999/xlink" x="0px" y="0px"
	 width="51.02px" height="73.75px" viewBox="0 0 51.02 73.75" enable-background="new 0 0 51.02 73.75" xml:space="preserve">
<g>
	<rect x="36.815" y="11.4" fill="#FFFFFF" width="2.825" height="2.826"/>
	<polygon fill="#FFFFFF" points="14.206,14.227 19.858,14.227 19.859,14.227 22.684,14.227 25.511,14.227 28.337,14.227
		31.163,14.227 31.163,22.705 22.684,22.705 22.684,25.531 31.163,25.531 31.163,25.531 33.989,25.531 33.989,11.4 31.163,11.4
		31.163,11.4 28.337,11.4 25.511,11.4 22.684,11.4 19.859,11.4 19.858,11.4 14.206,11.4 11.38,11.4 11.379,11.4 11.379,36.836
		14.206,36.836 14.206,36.836 39.641,36.836 39.641,34.009 14.206,34.009 	"/>
	<polygon fill="#FFFFFF" points="28.337,19.879 28.337,17.053 17.032,17.053 17.032,19.879 17.032,28.357 17.032,31.184
		19.859,31.184 33.989,31.184 33.989,28.357 19.859,28.357 19.859,19.879 	"/>
	<rect x="36.815" y="17.053" fill="#FFFFFF" width="2.825" height="14.131"/>
</g>
<g>
	<path fill="#FFFFFF" d="M14.808,57.828h-2.293v3.396h2.675v1.131h-3.057c-0.509,0-0.765-0.251-0.765-0.754v-4.148
		c0-0.503,0.255-0.755,0.765-0.755h3.057L14.808,57.828z"/>
	<path fill="#FFFFFF" d="M20.54,61.601c0,0.503-0.255,0.754-0.764,0.754h-3.058c-0.509,0-0.764-0.251-0.764-0.754V58.96
		c0-0.503,0.255-0.754,0.764-0.754h3.058c0.509,0,0.764,0.251,0.764,0.754V61.601z M17.1,59.337v1.887h2.294v-1.887H17.1z"/>
	<path fill="#FFFFFF" d="M21.304,62.354V58.96c0-0.503,0.255-0.754,0.764-0.754h2.289l-0.382,1.131H22.45v3.018H21.304z"/>
	<path fill="#FFFFFF" d="M25.507,58.206h3.058c0.509,0,0.764,0.251,0.764,0.754v2.641c0,0.503-0.255,0.754-0.764,0.754h-2.293
		l0.382-1.131h1.528v-1.887H25.89v4.527h-1.147V58.96C24.743,58.457,24.998,58.206,25.507,58.206z"/>
	<path fill="#FFFFFF" d="M30.097,62.354v-1.131h1.146v1.131H30.097z"/>
</g>
<g>
	<path fill="#FFFFFF" d="M11.368,41.564V51.94c0,1.259,0.633,1.888,1.899,1.888h7.593v-2.831h-6.644v-2.829h2.847l0.949-2.831
		h-3.796v-2.829h6.644v-2.83h-7.593C12,39.678,11.368,40.308,11.368,41.564z"/>
	<path fill="#FFFFFF" d="M32.599,42.508l0.949-2.83h-7.593c-1.266,0-1.899,0.63-1.899,1.887V51.94c0,1.259,0.633,1.888,1.899,1.888
		h7.593v-2.831h-6.644v-8.489H32.599z"/>
	<rect x="36.793" y="39.678" fill="#FFFFFF" width="2.848" height="14.15"/>
</g>
</svg>
